<svg width="749" height="288" viewBox="0 0 749 288" fill="none" xmlns="http://www.w3.org/2000/svg">
<path d="M434.298 34.9897C434.268 30.4097 434.998 25.8497 436.478 21.5197C437.838 17.4997 439.968 13.7897 442.758 10.5997C445.528 7.47972 448.948 4.98972 452.768 3.31972C457.028 1.49972 461.618 0.599707 466.238 0.679707C470.848 0.609707 475.428 1.50972 479.668 3.31972C483.508 4.98972 486.948 7.46972 489.728 10.5997C492.518 13.7997 494.648 17.5097 496.008 21.5197C497.488 25.8597 498.228 30.4097 498.198 34.9897C498.228 39.4797 497.488 43.9497 496.008 48.1897C494.648 52.1497 492.518 55.7997 489.728 58.9297C486.928 62.0097 483.498 64.4697 479.668 66.1197C475.428 67.9297 470.848 68.8297 466.238 68.7597C461.608 68.8397 457.018 67.9397 452.768 66.1197C448.958 64.4597 445.548 62.0097 442.758 58.9297C439.978 55.7997 437.838 52.1497 436.478 48.1897C434.998 43.9397 434.268 39.4797 434.298 34.9897ZM448.588 34.9897C448.578 37.6697 448.898 40.3497 449.538 42.9597C450.128 45.4497 451.168 47.7997 452.598 49.9197C453.998 51.9897 455.868 53.6897 458.058 54.8797C460.588 56.1897 463.408 56.8297 466.248 56.7497C469.098 56.8397 471.918 56.1897 474.438 54.8797C476.628 53.6897 478.498 51.9797 479.898 49.9197C481.318 47.7997 482.358 45.4397 482.948 42.9597C483.588 40.3497 483.918 37.6797 483.908 34.9897C483.918 32.1997 483.588 29.4197 482.948 26.6997C482.368 24.1597 481.328 21.7397 479.898 19.5597C478.508 17.4697 476.638 15.7597 474.438 14.5497C471.908 13.2397 469.088 12.5997 466.248 12.6797C463.398 12.5897 460.578 13.2397 458.058 14.5497C455.858 15.7497 453.988 17.4697 452.598 19.5597C451.158 21.7397 450.128 24.1597 449.538 26.6997C448.898 29.4197 448.578 32.1997 448.588 34.9897Z" fill="black"/>
<path d="M506.578 20.1499H518.868V28.8899H519.048C519.658 27.4199 520.488 26.0599 521.508 24.8399C522.528 23.6099 523.728 22.5399 525.058 21.6599C526.388 20.7899 527.828 20.0999 529.338 19.6099C530.868 19.1199 532.468 18.8799 534.068 18.8799C535.028 18.8999 535.978 19.0499 536.888 19.3299V31.3399C536.278 31.2199 535.548 31.1199 534.708 31.0199C533.888 30.9299 533.068 30.8899 532.248 30.8899C530.178 30.8299 528.128 31.2299 526.238 32.0699C524.668 32.7999 523.308 33.9099 522.278 35.2999C521.238 36.7399 520.508 38.3799 520.138 40.1199C519.708 42.0499 519.488 44.0199 519.498 45.9899V67.1999H506.568V20.1499H506.578Z" fill="black"/>
<path d="M541.438 34.6197C541.528 31.9597 542.318 29.3697 543.718 27.1097C545.018 25.1197 546.758 23.4497 548.808 22.2397C550.948 20.9897 553.288 20.1197 555.728 19.6497C558.308 19.1297 560.928 18.8697 563.558 18.8797C565.968 18.8797 568.368 19.0497 570.748 19.3797C573.058 19.6797 575.298 20.3397 577.398 21.3397C579.358 22.2697 581.048 23.6797 582.318 25.4397C583.668 27.4597 584.338 29.8497 584.228 32.2697V56.7497C584.228 58.7897 584.348 60.8297 584.588 62.8497C584.708 64.3797 585.138 65.8697 585.868 67.2197H572.758C572.518 66.4897 572.318 65.7497 572.168 64.9897C572.018 64.2197 571.908 63.4497 571.848 62.6697C569.838 64.7597 567.328 66.3097 564.568 67.1797C561.798 68.0597 558.918 68.4997 556.008 68.4997C553.888 68.5197 551.768 68.2197 549.728 67.6297C547.878 67.0997 546.148 66.2197 544.628 65.0397C543.168 63.8697 541.998 62.3697 541.218 60.6697C540.358 58.6897 539.938 56.5497 539.988 54.3897C539.898 52.1097 540.388 49.8297 541.398 47.7897C542.268 46.1397 543.518 44.7197 545.038 43.6497C546.588 42.5897 548.308 41.7997 550.128 41.3297C552.028 40.8197 553.968 40.4097 555.908 40.0997C557.848 39.7997 559.758 39.5597 561.648 39.3697C563.338 39.2197 565.008 38.9497 566.648 38.5497C567.908 38.2797 569.088 37.7297 570.108 36.9597C570.988 36.1997 571.428 35.0597 571.288 33.9097C571.328 32.7797 571.098 31.6497 570.608 30.6297C570.188 29.8297 569.558 29.1497 568.788 28.6697C567.978 28.1897 567.078 27.8797 566.148 27.7597C565.078 27.6097 563.998 27.5297 562.918 27.5397C560.788 27.4197 558.678 27.9897 556.908 29.1797C555.308 30.5497 554.378 32.5397 554.358 34.6397L541.438 34.6197ZM571.298 44.1797C570.698 44.6897 569.998 45.0797 569.248 45.3197C568.388 45.5997 567.498 45.8297 566.608 45.9997C565.668 46.1797 564.658 46.3397 563.598 46.4497C562.538 46.5697 561.518 46.7297 560.548 46.9097C559.558 47.0797 558.588 47.3197 557.638 47.6397C556.778 47.9197 555.958 48.3297 555.218 48.8697C554.508 49.3997 553.938 50.0797 553.538 50.8697C553.088 51.7897 552.868 52.8097 552.898 53.8297C552.858 54.8497 553.078 55.8697 553.538 56.7897C553.948 57.5397 554.538 58.1597 555.268 58.6097C556.048 59.0897 556.918 59.4097 557.818 59.5697C558.808 59.7597 559.808 59.8497 560.818 59.8397C562.868 59.9497 564.918 59.5097 566.738 58.5697C568.018 57.8397 569.088 56.7897 569.838 55.5197C570.478 54.4097 570.898 53.1897 571.068 51.9197C571.208 50.9597 571.278 49.9797 571.298 49.0097V44.1797Z" fill="black"/>
<path d="M594.238 20.1496H606.528V26.7096H606.798C608.278 24.1296 610.498 22.0496 613.168 20.7396C615.668 19.5196 618.398 18.8896 621.178 18.8796C624.078 18.7796 626.978 19.2597 629.688 20.2897C631.748 21.1097 633.548 22.4597 634.928 24.1997C636.258 26.0097 637.178 28.0896 637.608 30.2996C638.148 32.9196 638.408 35.5896 638.378 38.2696V67.2196H625.458V40.6397C625.658 37.6297 625.028 34.6197 623.628 31.9497C622.148 29.8997 619.678 28.8096 617.168 29.0796C614.258 28.8196 611.408 29.9897 609.518 32.2297C607.938 34.3197 607.148 37.7596 607.148 42.5596V67.2297H594.228L594.238 20.1496Z" fill="black"/>
<path d="M693.458 64.2196C693.428 66.4096 693.168 68.5896 692.688 70.7196C692.128 73.2096 690.988 75.5296 689.368 77.4996C687.368 79.8496 684.838 81.6896 681.998 82.8696C677.888 84.4796 673.488 85.2296 669.068 85.0496C666.688 85.0396 664.318 84.7496 662.008 84.1896C659.698 83.6496 657.478 82.7396 655.448 81.4996C653.498 80.3096 651.818 78.7096 650.528 76.8196C649.178 74.7696 648.408 72.3997 648.298 69.9497H661.218C661.598 72.0697 662.898 73.9096 664.758 74.9996C666.628 75.9696 668.718 76.4597 670.828 76.4197C673.838 76.6797 676.788 75.4796 678.758 73.1896C680.508 70.7396 681.358 67.7696 681.158 64.7696V58.5796H680.978C679.638 61.0196 677.548 62.9496 675.018 64.0896C672.468 65.2696 669.678 65.8796 666.868 65.8696C663.718 65.9596 660.588 65.3196 657.718 63.9996C655.268 62.8096 653.138 61.0596 651.488 58.8996C649.798 56.6496 648.578 54.0796 647.888 51.3396C647.118 48.3496 646.738 45.2796 646.748 42.1896C646.738 39.2096 647.178 36.2496 648.068 33.4096C648.888 30.6996 650.198 28.1696 651.938 25.9396C653.638 23.7796 655.808 22.0296 658.268 20.7996C660.968 19.4796 663.948 18.8196 666.958 18.8796C669.768 18.8196 672.558 19.4096 675.108 20.6096C677.608 21.9196 679.648 23.9496 680.978 26.4396H681.158V20.1596H693.448L693.458 64.2196ZM670.158 56.1096C671.828 56.1396 673.488 55.7696 674.978 55.0196C676.338 54.3296 677.528 53.3296 678.438 52.1096C679.368 50.8596 680.058 49.4596 680.488 47.9696C680.948 46.3896 681.178 44.7496 681.168 43.0996C681.178 41.2696 680.988 39.4397 680.618 37.6397C680.298 35.9897 679.688 34.4196 678.798 32.9996C677.948 31.6696 676.778 30.5696 675.388 29.8096C673.768 28.9796 671.968 28.5696 670.148 28.6296C668.518 28.5796 666.908 28.9596 665.458 29.7196C664.158 30.4496 663.038 31.4596 662.178 32.6796C661.278 33.9696 660.628 35.4196 660.268 36.9596C659.868 38.6096 659.668 40.3097 659.678 42.0097C659.678 43.7097 659.848 45.3996 660.178 47.0596C660.478 48.6496 661.068 50.1796 661.908 51.5696C662.718 52.8997 663.828 54.0196 665.148 54.8496C666.668 55.7296 668.408 56.1796 670.158 56.1096Z" fill="black"/>
<path d="M714.488 46.8296C714.348 50.1596 715.488 53.4196 717.678 55.9296C719.988 57.9496 722.998 58.9596 726.048 58.7496C728.438 58.8096 730.798 58.1296 732.788 56.7896C734.378 55.8496 735.598 54.3796 736.248 52.6496H747.628C746.338 57.5496 743.368 61.8496 739.258 64.7996C735.168 67.3496 730.418 68.6296 725.598 68.4896C722.168 68.5396 718.768 67.9196 715.578 66.6596C712.728 65.5196 710.148 63.7896 708.028 61.5696C705.918 59.3096 704.298 56.6496 703.248 53.7396C702.098 50.5296 701.518 47.1296 701.558 43.7196C701.528 40.3596 702.118 37.0296 703.288 33.8896C704.378 30.9596 706.048 28.2796 708.208 26.0196C710.368 23.7796 712.948 21.9996 715.808 20.7796C718.908 19.4796 722.238 18.8296 725.588 18.8696C729.218 18.7796 732.808 19.5796 736.058 21.1896C738.958 22.6696 741.468 24.8096 743.388 27.4296C745.328 30.1096 746.738 33.1396 747.528 36.3496C748.388 39.7696 748.698 43.2996 748.438 46.8196L714.488 46.8296ZM735.518 38.6296C735.148 35.8896 734.028 33.3096 732.288 31.1696C730.418 29.3396 727.848 28.4096 725.238 28.6196C723.448 28.5496 721.668 28.9096 720.058 29.6696C718.808 30.2996 717.708 31.1796 716.818 32.2596C716.038 33.2296 715.448 34.3396 715.088 35.5396C714.778 36.5496 714.588 37.5896 714.498 38.6396H735.518V38.6296Z" fill="black"/>
<path d="M437.118 111.46H465.158C469.148 111.42 473.108 112.1 476.858 113.46C480.388 114.75 483.588 116.8 486.238 119.47C488.998 122.34 491.108 125.77 492.428 129.52C493.988 134.04 494.748 138.8 494.658 143.58C494.698 148.02 494.088 152.43 492.838 156.69C491.728 160.49 489.858 164.02 487.328 167.06C484.818 170.01 481.678 172.36 478.138 173.93C474.038 175.68 469.618 176.54 465.168 176.43H437.128L437.118 111.46ZM451.408 164.44H464.158C466.208 164.44 468.238 164.1 470.168 163.44C472.138 162.76 473.918 161.62 475.358 160.12C476.988 158.39 478.228 156.32 478.998 154.07C479.978 151.14 480.448 148.06 480.368 144.97C480.398 141.99 480.078 139.01 479.408 136.1C478.858 133.64 477.788 131.32 476.268 129.31C474.758 127.39 472.768 125.89 470.498 124.99C467.668 123.91 464.648 123.4 461.618 123.49H451.418L451.408 164.44Z" fill="black"/>
<path d="M516.498 122.11H503.568V111.46H516.498V122.11ZM503.568 129.39H516.498V176.45H503.568V129.39Z" fill="black"/>
<path d="M571.928 173.46C571.898 175.65 571.638 177.83 571.158 179.96C570.598 182.45 569.458 184.77 567.838 186.74C565.838 189.09 563.308 190.93 560.468 192.11C556.358 193.73 551.958 194.47 547.548 194.29C545.168 194.28 542.798 193.99 540.498 193.43C538.188 192.88 535.968 191.98 533.938 190.74C531.988 189.54 530.308 187.95 529.018 186.05C527.668 184 526.898 181.63 526.788 179.18H539.718C540.098 181.3 541.388 183.15 543.258 184.23C545.128 185.2 547.218 185.69 549.328 185.64C552.338 185.9 555.288 184.7 557.258 182.41C559.008 179.96 559.858 176.99 559.658 173.99V167.79H559.478C558.138 170.22 556.048 172.16 553.508 173.3C550.958 174.48 548.178 175.09 545.358 175.08C542.208 175.17 539.078 174.53 536.208 173.21C533.758 172.02 531.628 170.27 529.978 168.11C528.288 165.86 527.068 163.29 526.378 160.55C525.608 157.56 525.218 154.49 525.238 151.4C525.228 148.42 525.678 145.46 526.558 142.62C527.378 139.91 528.688 137.38 530.428 135.15C532.138 132.99 534.298 131.24 536.758 130.01C539.468 128.7 542.448 128.04 545.458 128.1C548.268 128.04 551.058 128.63 553.608 129.83C556.108 131.14 558.148 133.16 559.488 135.65H559.668V129.37H571.958L571.928 173.46ZM548.638 165.35C550.308 165.38 551.968 165.01 553.458 164.26C554.818 163.56 555.998 162.57 556.918 161.35C557.848 160.1 558.538 158.7 558.968 157.21C559.428 155.63 559.658 153.99 559.648 152.34C559.658 150.51 559.468 148.68 559.108 146.88C558.788 145.23 558.178 143.66 557.288 142.23C556.438 140.9 555.258 139.8 553.878 139.04C552.258 138.21 550.458 137.8 548.648 137.86C547.018 137.81 545.398 138.19 543.958 138.95C542.658 139.67 541.538 140.69 540.678 141.91C539.778 143.2 539.128 144.65 538.768 146.19C538.368 147.84 538.158 149.54 538.168 151.24C538.168 152.94 538.338 154.63 538.678 156.29C538.978 157.88 539.568 159.41 540.408 160.8C541.218 162.13 542.328 163.25 543.638 164.08C545.138 164.98 546.878 165.42 548.638 165.35Z" fill="black"/>
<path d="M595.598 122.11H582.678V111.46H595.598V122.11ZM582.678 129.39H595.598V176.45H582.678V129.39Z" fill="black"/>
<path d="M622.188 129.39H631.658V138.04H622.188V161.35C622.008 162.89 622.398 164.45 623.278 165.72C624.558 166.6 626.108 166.99 627.648 166.81C628.378 166.81 629.068 166.78 629.738 166.72C630.378 166.66 631.018 166.57 631.648 166.45V176.56C630.448 176.75 629.228 176.87 628.008 176.92C626.668 176.98 625.358 177.01 624.088 177.01C622.188 177.02 620.278 176.88 618.398 176.6C616.728 176.37 615.118 175.81 613.668 174.96C612.298 174.14 611.178 172.96 610.438 171.55C609.578 169.77 609.168 167.79 609.258 165.81V138.05H601.428V129.4H609.258V115.29H622.188V129.39Z" fill="black"/>
<path d="M637.298 143.87C637.388 141.21 638.168 138.62 639.578 136.36C640.878 134.37 642.628 132.7 644.678 131.49C646.828 130.25 649.168 129.37 651.598 128.9C654.178 128.38 656.798 128.12 659.428 128.13C661.828 128.13 664.228 128.3 666.618 128.63C668.928 128.93 671.168 129.59 673.268 130.59C675.218 131.52 676.908 132.93 678.188 134.69C679.538 136.71 680.198 139.1 680.098 141.52V166.01C680.088 168.05 680.208 170.09 680.458 172.11C680.568 173.64 681.008 175.13 681.728 176.48H668.618C668.378 175.75 668.178 175.01 668.018 174.25C667.868 173.48 667.758 172.71 667.698 171.93C665.688 174.02 663.188 175.57 660.418 176.44C657.648 177.31 654.768 177.76 651.858 177.76C649.738 177.77 647.618 177.48 645.578 176.9C643.728 176.37 641.998 175.49 640.478 174.31C639.008 173.14 637.838 171.65 637.068 169.94C636.208 167.96 635.788 165.82 635.838 163.66C635.758 161.38 636.238 159.11 637.248 157.06C638.118 155.41 639.368 153.99 640.888 152.92C642.438 151.86 644.168 151.07 645.988 150.6C647.888 150.09 649.828 149.68 651.768 149.37C653.708 149.07 655.618 148.83 657.508 148.64C659.198 148.49 660.868 148.21 662.518 147.82C663.778 147.55 664.958 147 665.978 146.23C666.848 145.47 667.288 144.33 667.158 143.18C667.198 142.05 666.968 140.92 666.478 139.9C666.058 139.09 665.428 138.42 664.658 137.95C663.848 137.48 662.948 137.17 662.018 137.04C660.948 136.88 659.868 136.81 658.778 136.81C656.648 136.69 654.538 137.26 652.768 138.45C651.168 139.82 650.248 141.81 650.218 143.91L637.298 143.87ZM667.158 153.43C666.558 153.94 665.858 154.33 665.108 154.57C664.248 154.85 663.368 155.08 662.468 155.25C661.518 155.43 660.518 155.59 659.458 155.71C658.398 155.84 657.388 155.98 656.408 156.17C655.418 156.34 654.448 156.58 653.498 156.9C652.628 157.18 651.818 157.59 651.078 158.13C650.368 158.66 649.798 159.35 649.398 160.14C648.948 161.06 648.728 162.07 648.758 163.1C648.718 164.13 648.938 165.14 649.398 166.06C649.808 166.8 650.398 167.43 651.128 167.88C651.908 168.36 652.778 168.68 653.678 168.84C654.668 169.02 655.668 169.11 656.678 169.11C658.728 169.22 660.778 168.78 662.598 167.84C663.878 167.11 664.938 166.05 665.698 164.79C666.338 163.68 666.758 162.46 666.928 161.19C667.058 160.23 667.138 159.25 667.158 158.28V153.43Z" fill="black"/>
<path d="M703.388 111.46H690.458V176.45H703.388V111.46Z" fill="black"/>
<path d="M480.438 242.55C480.208 240.95 479.658 239.41 478.798 238.04C477.948 236.67 476.868 235.45 475.608 234.44C474.318 233.39 472.848 232.58 471.288 232.02C469.668 231.44 467.958 231.15 466.238 231.16C463.388 231.07 460.568 231.71 458.048 233.03C455.848 234.23 453.968 235.95 452.578 238.04C451.148 240.22 450.118 242.64 449.528 245.19C448.888 247.91 448.568 250.69 448.578 253.48C448.578 256.16 448.888 258.84 449.528 261.44C450.128 263.92 451.158 266.28 452.578 268.4C453.978 270.47 455.848 272.17 458.048 273.36C460.578 274.67 463.398 275.32 466.238 275.23C470.068 275.45 473.808 273.98 476.478 271.22C479.058 268.27 480.638 264.57 480.988 260.66H494.828C494.528 264.47 493.578 268.19 492.008 271.67C490.578 274.83 488.528 277.68 485.998 280.05C483.468 282.38 480.498 284.19 477.258 285.38C473.728 286.65 469.998 287.28 466.248 287.24C461.618 287.32 457.028 286.42 452.778 284.6C448.968 282.94 445.558 280.49 442.768 277.41C439.988 274.28 437.848 270.63 436.488 266.67C435.018 262.43 434.278 257.96 434.308 253.47C434.278 248.89 435.008 244.33 436.488 240C437.848 235.98 439.978 232.27 442.768 229.08C445.538 225.95 448.958 223.47 452.778 221.8C457.028 219.98 461.628 219.08 466.248 219.16C469.678 219.14 473.088 219.67 476.348 220.7C479.458 221.68 482.378 223.2 484.948 225.21C487.488 227.21 489.608 229.7 491.188 232.54C492.888 235.64 493.938 239.04 494.288 242.56L480.438 242.55Z" fill="black"/>
<path d="M513.858 265.3C513.718 268.63 514.858 271.88 517.038 274.4C519.348 276.42 522.358 277.44 525.418 277.23C527.808 277.29 530.168 276.61 532.158 275.27C533.748 274.32 534.968 272.86 535.618 271.13H546.998C545.698 276.03 542.738 280.33 538.628 283.28C534.538 285.83 529.788 287.11 524.968 286.97C521.538 287.02 518.138 286.4 514.948 285.15C512.088 284.02 509.518 282.28 507.398 280.05C505.288 277.79 503.658 275.13 502.618 272.22C501.458 269.01 500.888 265.62 500.928 262.2C500.898 258.84 501.488 255.51 502.658 252.37C503.748 249.44 505.418 246.76 507.578 244.49C509.738 242.26 512.318 240.48 515.178 239.26C518.268 237.96 521.608 237.31 524.958 237.35C528.588 237.26 532.178 238.06 535.428 239.67C538.328 241.15 540.838 243.29 542.758 245.91C544.698 248.59 546.108 251.61 546.898 254.83C547.758 258.25 548.068 261.78 547.808 265.3H513.858ZM534.888 257.11C534.518 254.37 533.398 251.78 531.658 249.64C529.788 247.81 527.208 246.88 524.608 247.09C522.818 247.02 521.038 247.38 519.428 248.14C518.178 248.77 517.078 249.65 516.188 250.74C515.408 251.71 514.818 252.82 514.458 254.02C514.148 255.03 513.958 256.07 513.868 257.12L534.888 257.11Z" fill="black"/>
<path d="M555.458 238.64H567.748V245.2H568.018C569.488 242.61 571.718 240.53 574.388 239.23C576.878 238.01 579.618 237.37 582.398 237.36C585.298 237.26 588.198 237.74 590.918 238.77C592.978 239.6 594.778 240.95 596.148 242.69C597.488 244.5 598.408 246.58 598.838 248.79C599.378 251.41 599.638 254.08 599.608 256.75V285.7H586.678V259.12C586.878 256.11 586.248 253.1 584.858 250.42C583.368 248.37 580.908 247.28 578.388 247.55C575.478 247.29 572.628 248.46 570.738 250.69C569.158 252.78 568.368 256.23 568.368 261.02V285.69H555.458V238.64Z" fill="black"/>
<path d="M625.828 238.63H635.298V247.28H625.828V270.59C625.648 272.13 626.028 273.68 626.918 274.96C628.188 275.85 629.748 276.239 631.288 276.049C632.018 276.049 632.718 276.02 633.378 275.95C634.018 275.9 634.658 275.81 635.288 275.68V285.78C634.078 285.97 632.868 286.1 631.648 286.15C630.318 286.21 629.008 286.24 627.738 286.24C625.838 286.25 623.938 286.11 622.048 285.83C620.378 285.6 618.768 285.04 617.318 284.19C615.948 283.37 614.828 282.19 614.078 280.78C613.218 278.99 612.818 277.019 612.898 275.039V247.28H605.068V238.63H612.898V224.52H625.818L625.828 238.63Z" fill="black"/>
<path d="M652.128 265.3C651.988 268.63 653.128 271.88 655.318 274.4C657.628 276.42 660.638 277.44 663.698 277.23C666.098 277.29 668.448 276.61 670.438 275.27C672.028 274.32 673.248 272.86 673.898 271.13H685.278C683.988 276.03 681.018 280.33 676.898 283.28C672.808 285.83 668.058 287.11 663.248 286.97C659.818 287.02 656.418 286.4 653.228 285.15C650.368 284.02 647.798 282.28 645.678 280.05C643.568 277.79 641.938 275.13 640.898 272.22C639.738 269.01 639.168 265.62 639.208 262.2C639.178 258.84 639.768 255.51 640.938 252.37C642.028 249.44 643.698 246.76 645.858 244.49C648.018 242.26 650.598 240.48 653.458 239.26C656.558 237.96 659.888 237.31 663.238 237.35C666.868 237.26 670.458 238.06 673.708 239.67C676.608 241.15 679.118 243.29 681.038 245.91C682.988 248.58 684.388 251.61 685.178 254.83C686.038 258.25 686.348 261.78 686.088 265.3H652.128ZM673.158 257.11C672.788 254.37 671.668 251.78 669.918 249.64C668.048 247.81 665.468 246.88 662.868 247.09C661.078 247.02 659.298 247.38 657.678 248.14C656.428 248.77 655.328 249.65 654.448 250.74C653.658 251.71 653.068 252.82 652.718 254.02C652.408 255.03 652.218 256.07 652.128 257.12L673.158 257.11Z" fill="black"/>
<path d="M693.738 238.64H706.028V247.38H706.208C706.818 245.91 707.648 244.55 708.668 243.33C709.688 242.1 710.888 241.03 712.218 240.14C713.548 239.26 714.988 238.58 716.498 238.09C718.028 237.6 719.628 237.35 721.228 237.36C722.188 237.38 723.138 237.53 724.048 237.81V249.83C723.438 249.71 722.708 249.61 721.868 249.51C721.048 249.42 720.228 249.37 719.408 249.37C717.338 249.31 715.288 249.71 713.398 250.56C711.828 251.29 710.468 252.4 709.438 253.79C708.398 255.23 707.668 256.87 707.298 258.61C706.868 260.54 706.648 262.51 706.658 264.48V285.69H693.738V238.64Z" fill="black"/>
<path d="M279.761 0.670898H0.920898V279.511H279.761V0.670898Z" fill="#FF7900"/>
<path d="M110.301 252.521C106.501 255.061 102.031 256.401 97.4608 256.381C91.5308 256.811 86.3808 252.351 85.9508 246.421C85.9208 245.981 85.9108 245.551 85.9408 245.111C85.9408 236.421 93.9308 231.821 110.381 229.951V227.791C110.381 224.971 108.241 223.331 104.291 223.331C100.611 223.231 97.1008 224.881 94.8408 227.791L87.9208 223.851C91.5408 218.801 97.0508 216.271 104.461 216.271C114.581 216.271 120.251 220.651 120.251 227.781C120.251 227.781 120.241 255.841 120.261 255.921H111.201L110.301 252.521ZM95.9808 244.351C95.7808 246.931 97.7108 249.181 100.291 249.381C100.391 249.391 100.491 249.391 100.591 249.391C104.141 249.251 107.511 247.801 110.051 245.301V236.111C100.511 237.311 95.9808 239.751 95.9808 244.351Z" fill="white"/>
<path d="M128.341 218.131L136.791 216.971L137.721 221.571C142.491 218.071 146.281 216.221 151.051 216.221C159.041 216.221 163.151 220.461 163.151 228.841V255.861H152.941V230.621C152.941 225.871 151.711 223.721 148.001 223.721C144.411 223.971 141.021 225.491 138.451 228.021V255.851H128.331V218.131H128.341Z" fill="white"/>
<path d="M230.801 256.611C219.361 256.611 212.531 249.261 212.531 236.491C212.531 223.571 219.441 216.221 230.631 216.221C241.821 216.221 248.491 223.351 248.491 235.981C248.491 236.641 248.411 237.311 248.411 237.981H222.571C222.651 245.331 225.701 249.041 231.711 249.041C235.341 249.121 238.711 247.211 240.521 244.071L248.001 248.231C244.721 253.711 238.771 256.611 230.801 256.611ZM238.461 231.381C238.461 226.181 235.501 223.131 230.641 223.131C226.031 223.131 223.151 226.101 222.751 231.381H238.461Z" fill="white"/>
<path d="M35.221 257.041C25.131 257.041 16.031 250.601 16.031 236.561C16.031 222.521 25.131 216.081 35.221 216.081C45.311 216.081 54.421 222.511 54.421 236.561C54.431 250.601 45.321 257.041 35.221 257.041ZM35.221 224.711C27.601 224.711 26.191 231.581 26.191 236.561C26.191 241.541 27.601 248.411 35.221 248.411C42.841 248.411 44.261 241.541 44.261 236.561C44.261 231.581 42.861 224.711 35.221 224.711Z" fill="white"/>
<path d="M61.4409 217.091H71.1509V221.661C73.8209 218.471 77.6909 216.531 81.8509 216.301C82.2909 216.291 82.7309 216.311 83.1709 216.371V225.951H82.6809C78.2309 225.951 73.3809 226.631 71.8209 230.081V255.891H61.4409V217.091Z" fill="white"/>
<path d="M188.151 247.571C195.911 247.511 196.551 239.631 196.551 234.481C196.551 228.421 193.591 223.481 188.081 223.481C184.411 223.481 180.311 226.161 180.311 234.901C180.321 239.701 180.651 247.621 188.151 247.571ZM206.361 216.951V253.701C206.361 260.181 205.871 270.861 187.371 270.981C179.731 271.021 172.671 267.981 171.261 261.321L181.341 259.691C181.751 261.601 182.921 263.501 188.641 263.501C193.941 263.501 196.481 260.961 196.481 254.901V250.391L196.341 250.251C194.481 254.011 190.501 256.251 186.311 255.891C177.271 255.891 170.151 249.621 170.151 236.501C170.151 223.521 177.491 216.261 185.751 216.251C193.481 216.241 196.371 219.761 197.021 221.621L196.901 221.601L197.741 216.951H206.361Z" fill="white"/>
<path d="M252.501 204.091H248.481V215.211H246.371V204.091H242.351V202.381H252.501V204.091ZM269.211 215.211H267.101V204.501H267.031L262.831 215.211H261.501L257.301 204.501H257.241V215.211H255.131V202.381H258.401L262.231 212.121L265.991 202.381H269.231L269.211 215.211Z" fill="white"/>
</svg>
